[img]http://leetleech.org/images/33281382742739452632.jpg[/img]

[b]The City of Your Final Destination (2009) DVDRip XviD-SKITTLES[/b]

[img]http://leetleech.org/images/39185456263711143641.png[/img]

Video
ID                               : 0
Format                           : MPEG-4 Visual
Format profile                   : Advanced Simple@L5
Format settings, BVOP            : Yes
Format settings, QPel            : No
Format settings, GMC             : No warppoints
Format settings, Matrix          : Default (H.263)
Muxing mode                      : Packed bitstream
Codec ID                         : XVID
Codec ID/Hint                    : XviD
Duration                         : 1h 57mn
Bit rate                         : 718 Kbps
Width                            : 592 pixels
Height                           : 320 pixels
Display aspect ratio             : 1.850
Frame rate                       : 23.976 fps
Color space                      : YUV
Chroma subsampling               : 4:2:0
Bit depth                        : 8 bits
Scan type                        : Progressive
Bits/(Pixel*Frame)               : 0.158
Stream size                      : 603 MiB (86%)
Writing library                  : XviD 1.2.1 (UTC 2008-12-04)

Audio
ID                               : 1
Format                           : MPEG Audio
Format version                   : Version 1
Format profile                   : Layer 3
Mode                             : Joint stereo
Mode extension                   : MS Stereo
Codec ID                         : 55
Codec ID/Hint                    : MP3
Duration                         : 1h 57mn
Bit rate mode                    : Constant
Bit rate                         : 112 Kbps
Channel(s)                       : 2 channels
Sampling rate                    : 44.1 KHz
Stream size                      : 94.1 MiB (13%)
Alignment                        : Split accross interleaves
Interleave, duration             : 42 ms (1.00 video frame)
Interleave, preload duration     : 500 ms
 
http://www.imdb.com/title/tt0896923/

[img]http://leetleech.org/images/46941880339015444838.png[/img]

Anthony Hopkins	... 	Adam
Omar Metwally	... 	Omar Razaghi
Laura Linney	... 	Caroline
Charlotte Gainsbourg... Arden Langdon
Hiroyuki Sanada	... 	Pete
Norma Aleandro	... 	Mrs. Van Euwen
Alexandra Maria Lara... Deirdre

[img]http://leetleech.org/images/70187465700988366433.png[/img]

Genre:
Drama 

Plot: 
28-year-old Kansas University doctoral student Omar Razaghi
wins a grant to write a biography of Latin American writer 
Jules Gund. Omar must get through to three people who were c
lose to Gund--his brother, widow, and younger mistress--so he 
can get authorization to write the biography.  

[img]http://leetleech.org/images/64476088802225496360.png[/img]

[img]http://leetleech.org/images/16396981489152526633.png[/img]
[img]http://leetleech.org/images/91222373312763059194.png[/img]
[img]http://leetleech.org/images/25956923102384916600.png[/img]
[img]http://leetleech.org/images/21776329302142520200.png[/img]
[img]http://leetleech.org/images/76784549554364050382.png[/img]